<mxfile host="app.diagrams.net" modified="2023-07-15T10:37:29.763Z" agent="Mozilla/5.0 (Macintosh; Intel Mac OS X 10_15_7) AppleWebKit/537.36 (KHTML, like Gecko) Chrome/114.0.0.0 Safari/537.36" version="21.6.2" etag="sanK8alGb17gVvZSuQOQ" type="github">
  <diagram name="第 1 页" id="KpxZ_H7u2EV2Q6JHVa0O">
    <mxGraphModel>
      <root>
        <mxCell id="0" />
        <mxCell id="1" parent="0" />
      </root>
    </mxGraphModel>
  </diagram>
</mxfile>
